# xmcd CD database file
#
# Track frame offsets:
#	180
#	11886
#	28356
#	57779
#	74003
#	103360
#	114977
#	126178
#	138194
#	158810
#	175394
#	190575
#	209489
#	223957
#	239898
#	250521
#	271764
#	288840
#	304086
#	317376
#
# Disc length: 4391 seconds
#
# Revision: 0
# Processed by: cddbd v1.5.2PL0 Copyright (c) Steve Scherf et al.
# Submitted via: CDex 1.70beta2
#
DISCID=31112514
DTITLE=Various Artist - Dixieland parade à la Nouvelle-Orléans
DYEAR=1997
DGENRE=Jazz
TTITLE0=Petite Fleur - Sidney Bechet
TTITLE1=When the Saints go Marchin'In - K. Purvis/J. Black
TTITLE2=Sweet Georgia Brown - Bernie/Pinkard/Casey
TTITLE3=Basin Street Blues - Williams
TTITLE4=Washington and Lee Swing - Alien/Sheafe/Robbins
TTITLE5=My Blue Heaven - Whiting/Donaldson
TTITLE6=Sheik of Araby - Smith/Wheeler/Snyder
TTITLE7=Ol' Man River - Hammerstein/Kern
TTITLE8=St Louis Blues - Handy
TTITLE9=Tiger Rag - Decosta/Edwards/Larocca/Sbarbaro/Shields
TTITLE10=Original Dixieland One Step - Larocca
TTITLE11=Lazy River - Carmichael/Arodin
TTITLE12=Dear Old Southland - Creamer/Layton
TTITLE13=Down By the Riverside - Trad.
TTITLE14=Ain't She Sweet - Yellen/Ager
TTITLE15=St James Infirmary - Primrose
TTITLE16=Swanee River - Foster
TTITLE17=Basin' Street Blues - Williams
TTITLE18=Muskrat Ramble - R. Gilbert/E. Ory
TTITLE19=Mack the Knife - M. Blitzstein/K. Weill
EXTD=YEAR: 1997
EXTT0=
EXTT1=
EXTT2=
EXTT3=
EXTT4=
EXTT5=
EXTT6=
EXTT7=
EXTT8=
EXTT9=
EXTT10=
EXTT11=
EXTT12=
EXTT13=
EXTT14=
EXTT15=
EXTT16=
EXTT17=
EXTT18=
EXTT19=
PLAYORDER=
